<svg
  xmlns="http://www.w3.org/2000/svg"
  width="800px"
  height="800px"
  viewBox="0 0 800 800"
>
  <g>
    <path
      d="M 466.28125 399.511719 C 466.28125 362.566406 436.328125 332.613281 399.382812 332.613281 C 362.433594 332.613281 332.480469 362.566406 332.480469 399.511719 C 332.480469 436.460938 362.433594 466.414062 399.382812 466.414062 C 436.328125 466.414062 466.28125 436.460938 466.28125 399.511719 Z M 466.28125 399.511719 "
      style="
        stroke: none;
        fill-rule: nonzero;
        fill: rgb(0%, 84.705883%, 100%);
        fill-opacity: 1;
      "
    />
    <path
      d="M 1806.508355 1191.894076 C 2212.69975 1191.894076 2590.108432 1250.201597 2874.596128 1348.105226 C 3217.391346 1466.098446 3428.199538 1644.996522 3428.199538 1807.003086 C 3428.199538 1975.794525 3204.793387 2165.894713 2836.69624 2287.79277 C 2558.392675 2380.006998 2192.097759 2428.207882 1806.508355 2428.207882 C 1411.095018 2428.207882 1036.79607 2382.99305 755.294426 2286.803309 C 399.194492 2165.09961 184.69349 1972.596446 184.69349 1807.003086 C 184.69349 1646.304024 385.99579 1468.801795 724.002723 1351.002933 C 1009.603562 1251.49143 1396.30611 1191.894076 1806.508355 1191.894076 Z M 1806.508355 1191.894076 "
      style="
        fill: none;
        stroke-width: 144.745605;
        stroke-linecap: butt;
        stroke-linejoin: miter;
        stroke: rgb(0%, 84.705883%, 100%);
        stroke-opacity: 1;
        stroke-miterlimit: 10;
      "
      transform="matrix(0.22108,0,0,0.22108,0,0)"
    />
    <path
      d="M 1270.997946 1501.294986 C 1473.90812 1149.400261 1713.004294 851.607849 1939.997241 654.104373 C 2213.494853 416.103673 2473.793762 322.899984 2614.102861 403.806087 C 2760.295718 488.104627 2813.408569 776.603174 2735.099801 1156.503178 C 2675.908833 1443.694223 2534.698618 1785.005248 2342.001095 2119.107344 C 2144.497619 2461.602189 1918.299775 2763.299439 1694.398894 2959.106696 C 1411.095018 3206.807647 1137.102675 3296.406871 993.701511 3213.698536 C 854.505556 3133.393177 801.30436 2870.408588 868.004631 2518.708222 C 924.403906 2221.304527 1066.002837 1856.599817 1270.997946 1501.294986 Z M 1270.997946 1501.294986 "
      style="
        fill: none;
        stroke-width: 144.745605;
        stroke-linecap: butt;
        stroke-linejoin: miter;
        stroke: rgb(0%, 84.705883%, 100%);
        stroke-opacity: 1;
        stroke-miterlimit: 10;
      "
      transform="matrix(0.22108,0,0,0.22108,0,0)"
    />
    <path
      d="M 1271.492677 2119.796433 C 1067.999428 1768.202081 929.404217 1412.40252 871.591427 1117.101429 C 801.993449 761.301867 851.201463 489.200102 991.404548 408.099641 C 1137.491392 323.500728 1413.90438 421.598715 1703.904787 679.105931 C 1923.194073 873.800045 2148.296443 1166.592146 2341.506365 1500.39387 C 2539.592916 1842.606012 2688.100406 2189.200052 2745.807183 2480.896678 C 2818.903611 2850.106969 2759.694974 3132.191689 2616.399824 3215.094383 C 2477.292213 3295.5941 2222.894732 3210.394443 1951.499725 2976.899324 C 1722.29816 2779.607876 1477.000185 2474.800892 1271.492677 2119.796433 Z M 1271.492677 2119.796433 "
      style="
        fill: none;
        stroke-width: 144.745605;
        stroke-linecap: butt;
        stroke-linejoin: miter;
        stroke: rgb(0%, 84.705883%, 100%);
        stroke-opacity: 1;
        stroke-miterlimit: 10;
      "
      transform="matrix(0.22108,0,0,0.22108,0,0)"
    />
  </g>
</svg>
